<?xml version="1.0" encoding="utf-8"?>
<svg xmlns="http://www.w3.org/2000/svg" width="574" height="175" viewBox="0 0 574 175" fill="none">
<g clip-path="url(#clip0_74_606)">
<path d="M551.65 43.8102C550.85 43.7502 550.05 43.7202 549.21 43.7202H537.52H513.36H501.7C500.85 43.7202 500.02 43.7502 499.17 43.8302C483.81 45.0302 468.65 57.0002 463.46 72.0302C462.12 77.1202 460.76 82.2702 459.4 87.4202C458.04 92.5702 456.69 97.7202 455.33 102.84C452.6 117.86 461.45 129.84 476.18 131.04C476.98 131.1 477.8 131.13 478.63 131.13H490.3H514.46H526.15C526.98 131.13 527.8 131.1 528.63 131.02C543.94 129.85 559.05 117.96 564.33 103L568.43 87.4102L572.53 71.8702C575.19 56.9002 566.34 44.9902 551.65 43.8102ZM540.14 87.4102C538.71 92.8802 537.01 99.3302 536.75 100.27C535.44 105.22 530.3 109.28 525.35 109.28H520.23H496.07H490.95C485.98 109.28 483.01 105.21 484.32 100.24L487.7 87.4102H487.72L491.1 74.5802C492.4 69.6102 497.53 65.5602 502.5 65.5602H507.6H531.78H536.9C541.83 65.5602 544.83 69.5702 543.56 74.4902C543.82 73.5502 542.11 79.9902 540.17 87.4102H540.14V87.4102Z" fill="white"/>
<path d="M459.65 32.78L462.53 21.85L465.41 10.93L468.3 0H467.82L450.55 10.93L434.44 21.12C434.38 21.35 434.32 21.6 434.25 21.84C433.33 25.32 432.37 28.98 431.37 32.77C430.43 36.3 429.47 39.96 428.49 43.7C424.87 57.41 420.92 72.38 416.96 87.4C413.03 102.31 409.08 117.28 405.43 131.11H433.72L445.25 87.4L456.77 43.7L459.65 32.78Z" fill="white"/>
<path d="M417 32.78C418 28.99 418.96 25.33 419.88 21.85C420.9 18 421.87 14.34 422.76 10.93C423.82 6.92 424.78 3.25 425.64 0H425.19L408.74 10.93L392.32 21.85H391.58L388.7 32.78L385.82 43.71L374.3 87.41L362.77 131.12H391.05C394.7 117.29 398.65 102.32 402.58 87.41C406.54 72.39 410.49 57.42 414.11 43.71C415.1 39.97 416.06 36.31 417 32.78Z" fill="white"/>
<path d="M343.37 43.76C343.09 43.74 342.81 43.73 342.52 43.71H329.23H305.07H291.81C291.52 43.73 291.21 43.74 290.92 43.77C275.59 44.96 260.47 56.88 255.22 71.86C255.19 71.91 255.17 71.97 255.17 72.01C253.83 77.1 252.47 82.25 251.11 87.4C249.75 92.55 248.4 97.7 247.04 102.82C244.34 117.82 253.18 129.79 267.89 130.99C268.69 131.05 269.52 131.08 270.36 131.08H282.03H306.19H317.86C318.69 131.08 319.51 131.05 320.34 130.97C335.67 129.8 350.81 117.86 356.05 102.88C357.41 97.75 358.78 92.56 360.14 87.4C361.51 82.19 362.88 76.99 364.24 71.86C366.92 56.88 358.08 44.95 343.37 43.76ZM330.7 91.81C330.27 93.48 329.84 95.13 329.39 96.78L328.48 100.22C327.18 105.19 322.05 109.24 317.08 109.24H311.96H287.8H282.68C277.71 109.24 274.72 105.18 276.03 100.22C276.11 99.9 276.2 99.59 276.28 99.26C276.71 97.61 277.16 95.96 277.59 94.29C278.02 92.64 278.47 90.99 278.9 89.32C279.07 88.67 279.24 88.04 279.41 87.41C279.67 86.39 279.93 85.37 280.21 84.36C280.64 82.69 281.09 81.04 281.52 79.39L282.8 74.55C284.11 69.58 289.25 65.53 294.21 65.53H299.31H323.47H328.6C333.53 65.53 336.49 69.52 335.26 74.44C335.04 75.26 334.83 76.09 334.61 76.91C334.18 78.56 333.75 80.21 333.3 81.88C332.82 83.71 332.33 85.57 331.85 87.42C331.47 88.88 331.08 90.34 330.7 91.81Z" fill="white"/>
<path d="M220.191 43.8102C219.391 43.7502 218.571 43.7202 217.741 43.7202H206.071H181.891H170.231C169.401 43.7202 168.551 43.7502 167.721 43.8302C151.501 45.0902 135.491 58.3702 131.211 74.5902L127.831 87.4202H127.751L116.231 131.13L113.351 142.03L110.471 152.95L107.591 163.88L104.711 174.8H105.131L122.141 163.88L138.921 153.1C138.941 153.05 138.941 152.99 138.971 152.95C139.881 149.45 140.851 145.8 141.841 142.03C142.781 138.5 143.741 134.84 144.721 131.13C144.721 131.1 144.741 131.07 144.741 131.04C148.391 117.24 152.331 102.3 156.261 87.4202H156.281L159.661 74.5902C160.971 69.6202 166.091 65.5702 171.061 65.5702H176.181H200.341H205.461C210.391 65.5702 213.371 69.5602 212.141 74.4802C212.111 74.6502 212.061 74.8002 212.021 74.9602L210.831 79.4302C210.141 82.0802 209.441 84.7502 208.731 87.4202C208.561 88.0702 208.391 88.7202 208.211 89.3602L206.901 94.3302C206.391 96.3302 205.871 98.3202 205.331 100.3C204.001 105.25 198.881 109.29 193.931 109.29H188.811H164.601C162.631 116.77 160.681 124.09 158.831 131.14H183.011H194.681C195.511 131.14 196.331 131.11 197.161 131.03C212.471 129.86 227.581 117.97 232.861 103.01L236.961 87.4202L241.061 71.8802C243.721 56.9002 234.861 45.0102 220.191 43.8102Z" fill="white"/>
<path d="M113.61 87.4102C114.97 82.2102 116.34 77.0302 117.7 71.9002C120.37 56.9102 111.53 44.9902 96.8204 43.8102C96.0204 43.7502 95.2204 43.7202 94.3804 43.7202H82.6904H58.5304H46.8504C46.0204 43.7202 45.1704 43.7502 44.3404 43.8302C28.9804 45.0202 13.8104 57.0002 8.61043 72.0302C7.27043 77.1202 5.91043 82.2702 4.55043 87.4202C3.19043 92.5402 1.85043 97.6702 0.490429 102.76C-2.26957 117.81 6.58043 129.82 21.3204 131.04C22.1204 131.1 22.9504 131.13 23.7904 131.13H35.4604H59.6204L65.3704 109.28H41.2304H36.1304C31.1604 109.28 28.1704 105.21 29.4804 100.24C29.5604 99.9202 29.6504 99.6102 29.7304 99.2802C30.1604 97.6302 30.6104 95.9802 31.0404 94.3102C31.4704 92.6602 31.9204 91.0102 32.3504 89.3402C32.5204 88.6902 32.6904 88.0402 32.8704 87.4002C33.1204 86.4002 33.3904 85.3802 33.6604 84.3802C34.0904 82.7102 34.5404 81.0602 34.9704 79.4102L36.2504 74.5702C37.5604 69.6002 42.7004 65.5502 47.6604 65.5502H52.7604H76.9204H82.0504C86.9804 65.5502 89.9404 69.5402 88.7104 74.4602C88.4904 75.2902 88.2804 76.1102 88.0604 76.9302C87.6304 78.5802 87.2004 80.2302 86.7504 81.9002C86.2704 83.7302 85.7904 85.5702 85.3204 87.4002C84.9204 88.8802 84.5204 90.3602 84.1304 91.8302C83.7004 93.5002 83.2704 95.1502 82.8204 96.8002C79.7404 108.52 76.6704 120.11 73.7804 131.02C73.7804 131.05 73.7804 131.1 73.7604 131.13H102.06C104.43 122.09 106.95 112.58 109.49 102.93C110.88 97.7802 112.23 92.5902 113.61 87.4102Z" fill="white"/>
</g>
<defs>
<clipPath id="clip0_74_606">
<rect width="573.01" height="174.8" fill="white"/>
</clipPath>
</defs>
</svg>