<?xml version="1.0" encoding="utf-8"?>
<svg xmlns="http://www.w3.org/2000/svg" width="574" height="176" viewBox="0 0 574 176" fill="none">
<g clip-path="url(#clip0_74_614)">
<path d="M551.65 44.3874C550.85 44.3274 550.05 44.2974 549.21 44.2974H537.52H513.36H501.7C500.85 44.2974 500.02 44.3274 499.17 44.4074C483.81 45.6074 468.65 57.5774 463.46 72.6074C462.12 77.6974 460.76 82.8474 459.4 87.9974C458.04 93.1474 456.69 98.2974 455.33 103.417C452.6 118.437 461.45 130.417 476.18 131.617C476.98 131.677 477.8 131.707 478.63 131.707H490.3H514.46H526.15C526.98 131.707 527.8 131.677 528.63 131.597C543.94 130.427 559.05 118.537 564.33 103.577L568.43 87.9874L572.53 72.4474C575.19 57.4774 566.34 45.5674 551.65 44.3874ZM540.14 87.9874C538.71 93.4574 537.01 99.9074 536.75 100.847C535.44 105.797 530.3 109.857 525.35 109.857H520.23H496.07H490.95C485.98 109.857 483.01 105.787 484.32 100.817L487.7 87.9874H487.72L491.1 75.1574C492.4 70.1874 497.53 66.1374 502.5 66.1374H507.6H531.78H536.9C541.83 66.1374 544.83 70.1474 543.56 75.0674C543.82 74.1274 542.11 80.5674 540.17 87.9874H540.14V87.9874Z" fill="black"/>
<path d="M459.65 33.3571L462.53 22.4271L465.41 11.5071L468.3 0.577148H467.82L450.55 11.5071L434.44 21.6971C434.38 21.9271 434.32 22.1771 434.25 22.4171C433.33 25.8971 432.37 29.5571 431.37 33.3471C430.43 36.8771 429.47 40.5371 428.49 44.2771C424.87 57.9871 420.92 72.9571 416.96 87.9771C413.03 102.887 409.08 117.857 405.43 131.687H433.72L445.25 87.9771L456.77 44.2771L459.65 33.3571Z" fill="black"/>
<path d="M417 33.3571C418 29.5671 418.96 25.9071 419.88 22.4271C420.9 18.5771 421.87 14.9171 422.76 11.5071C423.82 7.49715 424.78 3.82715 425.64 0.577148H425.19L408.74 11.5071L392.32 22.4271H391.58L388.7 33.3571L385.82 44.2871L374.3 87.9872L362.77 131.697H391.05C394.7 117.867 398.65 102.897 402.58 87.9872C406.54 72.9672 410.49 57.9971 414.11 44.2871C415.1 40.5471 416.06 36.8871 417 33.3571Z" fill="black"/>
<path d="M343.37 44.3371C343.09 44.3171 342.81 44.3071 342.52 44.2871H329.23H305.07H291.81C291.52 44.3071 291.21 44.3171 290.92 44.3471C275.59 45.5371 260.47 57.4571 255.22 72.4371C255.19 72.4871 255.17 72.5471 255.17 72.5871C253.83 77.6771 252.47 82.8271 251.11 87.9771C249.75 93.1271 248.4 98.2771 247.04 103.397C244.34 118.397 253.18 130.367 267.89 131.567C268.69 131.627 269.52 131.657 270.36 131.657H282.03H306.19H317.86C318.69 131.657 319.51 131.627 320.34 131.547C335.67 130.377 350.81 118.437 356.05 103.457C357.41 98.3271 358.78 93.1371 360.14 87.9771C361.51 82.7671 362.88 77.5671 364.24 72.4371C366.92 57.4571 358.08 45.5271 343.37 44.3371ZM330.7 92.3871C330.27 94.0571 329.84 95.7071 329.39 97.3571L328.48 100.797C327.18 105.767 322.05 109.817 317.08 109.817H311.96H287.8H282.68C277.71 109.817 274.72 105.757 276.03 100.797C276.11 100.477 276.2 100.167 276.28 99.8371C276.71 98.1871 277.16 96.5371 277.59 94.8671C278.02 93.2171 278.47 91.5671 278.9 89.8971C279.07 89.2471 279.24 88.6171 279.41 87.9871C279.67 86.9671 279.93 85.9471 280.21 84.9371C280.64 83.2671 281.09 81.6171 281.52 79.9671L282.8 75.1271C284.11 70.1571 289.25 66.1071 294.21 66.1071H299.31H323.47H328.6C333.53 66.1071 336.49 70.0971 335.26 75.0171C335.04 75.8371 334.83 76.6671 334.61 77.4871C334.18 79.1371 333.75 80.7871 333.3 82.4571C332.82 84.2871 332.33 86.1471 331.85 87.9971C331.47 89.4571 331.08 90.9171 330.7 92.3871Z" fill="black"/>
<path d="M220.191 44.3874C219.391 44.3274 218.571 44.2974 217.741 44.2974H206.071H181.891H170.231C169.401 44.2974 168.551 44.3274 167.721 44.4074C151.501 45.6674 135.491 58.9474 131.211 75.1674L127.831 87.9974H127.751L116.231 131.707L113.351 142.607L110.471 153.527L107.591 164.457L104.711 175.377H105.131L122.141 164.457L138.921 153.677C138.941 153.627 138.941 153.567 138.971 153.527C139.881 150.027 140.851 146.377 141.841 142.607C142.781 139.077 143.741 135.417 144.721 131.707C144.721 131.677 144.741 131.647 144.741 131.617C148.391 117.817 152.331 102.877 156.261 87.9974H156.281L159.661 75.1674C160.971 70.1974 166.091 66.1474 171.061 66.1474H176.181H200.341H205.461C210.391 66.1474 213.371 70.1374 212.141 75.0574C212.111 75.2274 212.061 75.3774 212.021 75.5374L210.831 80.0074C210.141 82.6574 209.441 85.3274 208.731 87.9974C208.561 88.6474 208.391 89.2974 208.211 89.9374L206.901 94.9074C206.391 96.9074 205.871 98.8974 205.331 100.877C204.001 105.827 198.881 109.867 193.931 109.867H188.811H164.601C162.631 117.347 160.681 124.667 158.831 131.717H183.011H194.681C195.511 131.717 196.331 131.687 197.161 131.607C212.471 130.437 227.581 118.547 232.861 103.587L236.961 87.9974L241.061 72.4574C243.721 57.4774 234.861 45.5874 220.191 44.3874Z" fill="black"/>
<path d="M113.61 87.9874C114.97 82.7874 116.34 77.6074 117.7 72.4774C120.37 57.4874 111.53 45.5674 96.8204 44.3874C96.0204 44.3274 95.2204 44.2974 94.3804 44.2974H82.6904H58.5304H46.8504C46.0204 44.2974 45.1704 44.3274 44.3404 44.4074C28.9804 45.5974 13.8104 57.5774 8.61043 72.6074C7.27043 77.6974 5.91043 82.8474 4.55043 87.9974C3.19043 93.1174 1.85043 98.2474 0.490429 103.337C-2.26957 118.387 6.58043 130.397 21.3204 131.617C22.1204 131.677 22.9504 131.707 23.7904 131.707H35.4604H59.6204L65.3704 109.857H41.2304H36.1304C31.1604 109.857 28.1704 105.787 29.4804 100.817C29.5604 100.497 29.6504 100.187 29.7304 99.8574C30.1604 98.2074 30.6104 96.5574 31.0404 94.8874C31.4704 93.2374 31.9204 91.5874 32.3504 89.9174C32.5204 89.2674 32.6904 88.6174 32.8704 87.9774C33.1204 86.9774 33.3904 85.9574 33.6604 84.9574C34.0904 83.2874 34.5404 81.6374 34.9704 79.9874L36.2504 75.1474C37.5604 70.1774 42.7004 66.1274 47.6604 66.1274H52.7604H76.9204H82.0504C86.9804 66.1274 89.9404 70.1174 88.7104 75.0374C88.4904 75.8674 88.2804 76.6874 88.0604 77.5074C87.6304 79.1574 87.2004 80.8074 86.7504 82.4774C86.2704 84.3074 85.7904 86.1474 85.3204 87.9774C84.9204 89.4574 84.5204 90.9374 84.1304 92.4074C83.7004 94.0774 83.2704 95.7274 82.8204 97.3774C79.7404 109.097 76.6704 120.687 73.7804 131.597C73.7804 131.627 73.7804 131.677 73.7604 131.707H102.06C104.43 122.667 106.95 113.157 109.49 103.507C110.88 98.3574 112.23 93.1674 113.61 87.9874Z" fill="black"/>
</g>
<defs>
<clipPath id="clip0_74_614">
<rect width="573.01" height="174.8" fill="white" transform="translate(0 0.577148)"/>
</clipPath>
</defs>
</svg>