<svg id="visual" viewBox="0 0 900 600" width="900" height="600" xmlns="http://www.w3.org/2000/svg" xmlns:xlink="http://www.w3.org/1999/xlink" version="1.1"><rect x="0" y="0" width="900" height="600" fill="#BC4823"></rect><path d="M0 207L129 195L257 149L386 161L514 217L643 159L771 190L900 185L900 0L771 0L643 0L514 0L386 0L257 0L129 0L0 0Z" fill="#292625"></path><path d="M0 184L129 122L257 129L386 161L514 156L643 170L771 128L900 148L900 0L771 0L643 0L514 0L386 0L257 0L129 0L0 0Z" fill="#211e1d"></path><path d="M0 129L129 148L257 147L386 151L514 111L643 113L771 140L900 108L900 0L771 0L643 0L514 0L386 0L257 0L129 0L0 0Z" fill="#191615"></path><path d="M0 60L129 57L257 111L386 69L514 116L643 57L771 65L900 100L900 0L771 0L643 0L514 0L386 0L257 0L129 0L0 0Z" fill="#110d0b"></path><path d="M0 43L129 62L257 25L386 38L514 29L643 51L771 47L900 66L900 0L771 0L643 0L514 0L386 0L257 0L129 0L0 0Z" fill="#000000"></path></svg>